<svg width="127" height="51" viewBox="0 0 127 51" fill="none" xmlns="http://www.w3.org/2000/svg">
<path d="M19.5684 31V16.7812H24.2168C25.7598 16.7812 26.9186 17.1003 27.6934 17.7383C28.4746 18.3763 28.8652 19.3203 28.8652 20.5703C28.8652 21.2344 28.6764 21.8236 28.2988 22.3379C27.9212 22.8457 27.4069 23.2396 26.7559 23.5195C27.5241 23.7344 28.1296 24.1445 28.5723 24.75C29.0215 25.349 29.2461 26.0651 29.2461 26.8984C29.2461 28.1745 28.8327 29.1771 28.0059 29.9062C27.179 30.6354 26.0104 31 24.5 31H19.5684ZM21.4434 24.3496V29.4668H24.5391C25.4115 29.4668 26.0983 29.2422 26.5996 28.793C27.1074 28.3372 27.3613 27.7122 27.3613 26.918C27.3613 25.2057 26.4303 24.3496 24.5684 24.3496H21.4434ZM21.4434 22.8457H24.2754C25.0957 22.8457 25.75 22.6406 26.2383 22.2305C26.7331 21.8203 26.9805 21.2637 26.9805 20.5605C26.9805 19.7793 26.7526 19.2129 26.2969 18.8613C25.8411 18.5033 25.1478 18.3242 24.2168 18.3242H21.4434V22.8457ZM42.0391 16.7812V26.4492C42.0326 27.7904 41.6094 28.8874 40.7695 29.7402C39.9362 30.5931 38.8034 31.0716 37.3711 31.1758L36.873 31.1953C35.3171 31.1953 34.0768 30.7754 33.1523 29.9355C32.2279 29.0957 31.7591 27.9401 31.7461 26.4688V16.7812H33.6016V26.4102C33.6016 27.4388 33.8848 28.2396 34.4512 28.8125C35.0176 29.3789 35.8249 29.6621 36.873 29.6621C37.9342 29.6621 38.7448 29.3789 39.3047 28.8125C39.8711 28.2461 40.1543 27.4486 40.1543 26.4199V16.7812H42.0391ZM49.334 23.9199L53.0449 16.7812H55.1738L50.2715 25.6973V31H48.3965V25.6973L43.4941 16.7812H45.6426L49.334 23.9199ZM72.8984 31H71.0137L63.8555 20.043V31H61.9707V16.7812H63.8555L71.0332 27.7871V16.7812H72.8984V31ZM87.166 24.3496C87.166 25.7428 86.9316 26.9603 86.4629 28.002C85.9941 29.0371 85.3301 29.8281 84.4707 30.375C83.6113 30.9219 82.6087 31.1953 81.4629 31.1953C80.3431 31.1953 79.3503 30.9219 78.4844 30.375C77.6185 29.8216 76.9447 29.0371 76.4629 28.0215C75.9876 26.9993 75.7435 25.8177 75.7305 24.4766V23.4512C75.7305 22.084 75.9681 20.8763 76.4434 19.8281C76.9186 18.7799 77.5892 17.9792 78.4551 17.4258C79.3275 16.8659 80.3236 16.5859 81.4434 16.5859C82.5827 16.5859 83.5853 16.8626 84.4512 17.416C85.3236 17.9629 85.9941 18.7604 86.4629 19.8086C86.9316 20.8503 87.166 22.0645 87.166 23.4512V24.3496ZM85.3008 23.4316C85.3008 21.7454 84.9622 20.4531 84.2852 19.5547C83.6081 18.6497 82.6608 18.1973 81.4434 18.1973C80.2585 18.1973 79.3242 18.6497 78.6406 19.5547C77.9635 20.4531 77.6152 21.7031 77.5957 23.3047V24.3496C77.5957 25.9837 77.9375 27.2695 78.6211 28.207C79.3112 29.138 80.2585 29.6035 81.4629 29.6035C82.6738 29.6035 83.6113 29.1641 84.2754 28.2852C84.9395 27.3997 85.2812 26.1335 85.3008 24.4863V23.4316ZM93.0449 26.5176L93.3184 28.3926L93.7188 26.7031L96.5312 16.7812H98.1133L100.857 26.7031L101.248 28.4219L101.551 26.5078L103.758 16.7812H105.643L102.195 31H100.486L97.5566 20.6387L97.332 19.5547L97.1074 20.6387L94.0703 31H92.3613L88.9238 16.7812H90.7988L93.0449 26.5176Z" fill="black"/>
<rect x="0.5" y="0.5" width="123" height="47" stroke="black"/>
<rect x="3.5" y="3.5" width="123" height="47" stroke="black"/>
</svg>
