<svg width="130" height="38" viewBox="0 0 130 38" fill="none" xmlns="http://www.w3.org/2000/svg">
<path d="M13.3984 20.6289C13.3984 18.9818 13.7793 17.6732 14.541 16.7031C15.3027 15.7266 16.3118 15.2383 17.5684 15.2383C18.8574 15.2383 19.8633 15.694 20.5859 16.6055L20.6738 15.4336H22.3242V25.7461C22.3242 27.1133 21.9173 28.1908 21.1035 28.9785C20.2962 29.7663 19.209 30.1602 17.8418 30.1602C17.0801 30.1602 16.3346 29.9974 15.6055 29.6719C14.8763 29.3464 14.3197 28.9004 13.9355 28.334L14.873 27.25C15.6478 28.207 16.5951 28.6855 17.7148 28.6855C18.5938 28.6855 19.2773 28.4382 19.7656 27.9434C20.2604 27.4486 20.5078 26.752 20.5078 25.8535V24.9453C19.7852 25.7786 18.7988 26.1953 17.5488 26.1953C16.3118 26.1953 15.3092 25.6973 14.541 24.7012C13.7793 23.7051 13.3984 22.3477 13.3984 20.6289ZM15.2148 20.834C15.2148 22.0254 15.459 22.9629 15.9473 23.6465C16.4355 24.3236 17.1191 24.6621 17.998 24.6621C19.1374 24.6621 19.974 24.1445 20.5078 23.1094V18.2852C19.9544 17.276 19.1243 16.7715 18.0176 16.7715C17.1387 16.7715 16.4518 17.1133 15.957 17.7969C15.4622 18.4805 15.2148 19.4928 15.2148 20.834ZM29.4434 26.1953C28.0111 26.1953 26.8457 25.7266 25.9473 24.7891C25.0488 23.8451 24.5996 22.5853 24.5996 21.0098V20.6777C24.5996 19.6296 24.7982 18.6953 25.1953 17.875C25.599 17.0482 26.1589 16.4036 26.875 15.9414C27.5977 15.4727 28.3789 15.2383 29.2188 15.2383C30.5924 15.2383 31.6602 15.6908 32.4219 16.5957C33.1836 17.5007 33.5645 18.7962 33.5645 20.4824V21.2344H26.4062C26.4323 22.276 26.735 23.1191 27.3145 23.7637C27.9004 24.4017 28.6426 24.7207 29.541 24.7207C30.179 24.7207 30.7194 24.5905 31.1621 24.3301C31.6048 24.0697 31.9922 23.7246 32.3242 23.2949L33.4277 24.1543C32.5423 25.515 31.2142 26.1953 29.4434 26.1953ZM29.2188 16.7227C28.4896 16.7227 27.8776 16.9896 27.3828 17.5234C26.888 18.0508 26.582 18.793 26.4648 19.75H31.7578V19.6133C31.7057 18.6953 31.4583 17.9857 31.0156 17.4844C30.5729 16.9766 29.974 16.7227 29.2188 16.7227ZM37.373 15.4336L37.4316 16.7617C38.2389 15.7461 39.2936 15.2383 40.5957 15.2383C42.8288 15.2383 43.9551 16.498 43.9746 19.0176V26H42.168V19.0078C42.1615 18.2461 41.9857 17.6829 41.6406 17.3184C41.3021 16.9538 40.7715 16.7715 40.0488 16.7715C39.4629 16.7715 38.9486 16.9277 38.5059 17.2402C38.0632 17.5527 37.7181 17.9629 37.4707 18.4707V26H35.6641V15.4336H37.373ZM51.084 26.1953C49.6517 26.1953 48.4863 25.7266 47.5879 24.7891C46.6895 23.8451 46.2402 22.5853 46.2402 21.0098V20.6777C46.2402 19.6296 46.4388 18.6953 46.8359 17.875C47.2396 17.0482 47.7995 16.4036 48.5156 15.9414C49.2383 15.4727 50.0195 15.2383 50.8594 15.2383C52.2331 15.2383 53.3008 15.6908 54.0625 16.5957C54.8242 17.5007 55.2051 18.7962 55.2051 20.4824V21.2344H48.0469C48.0729 22.276 48.3757 23.1191 48.9551 23.7637C49.541 24.4017 50.2832 24.7207 51.1816 24.7207C51.8197 24.7207 52.36 24.5905 52.8027 24.3301C53.2454 24.0697 53.6328 23.7246 53.9648 23.2949L55.0684 24.1543C54.1829 25.515 52.8548 26.1953 51.084 26.1953ZM50.8594 16.7227C50.1302 16.7227 49.5182 16.9896 49.0234 17.5234C48.5286 18.0508 48.2227 18.793 48.1055 19.75H53.3984V19.6133C53.3464 18.6953 53.099 17.9857 52.6562 17.4844C52.2135 16.9766 51.6146 16.7227 50.8594 16.7227ZM62.4121 17.0547C62.1387 17.0091 61.8424 16.9863 61.5234 16.9863C60.3385 16.9863 59.5345 17.4909 59.1113 18.5V26H57.3047V15.4336H59.0625L59.0918 16.6543C59.6842 15.7103 60.5241 15.2383 61.6113 15.2383C61.9629 15.2383 62.2298 15.2839 62.4121 15.375V17.0547ZM70.2148 26C70.1107 25.7917 70.026 25.4206 69.9609 24.8867C69.1211 25.7591 68.1185 26.1953 66.9531 26.1953C65.9115 26.1953 65.0553 25.9023 64.3848 25.3164C63.7207 24.724 63.3887 23.9753 63.3887 23.0703C63.3887 21.9701 63.8053 21.1172 64.6387 20.5117C65.4785 19.8997 66.6569 19.5938 68.1738 19.5938H69.9316V18.7637C69.9316 18.1322 69.7428 17.6309 69.3652 17.2598C68.9876 16.8822 68.431 16.6934 67.6953 16.6934C67.0508 16.6934 66.5104 16.8561 66.0742 17.1816C65.638 17.5072 65.4199 17.901 65.4199 18.3633H63.6035C63.6035 17.8359 63.7891 17.3281 64.1602 16.8398C64.5378 16.3451 65.0456 15.9544 65.6836 15.668C66.3281 15.3815 67.0345 15.2383 67.8027 15.2383C69.0202 15.2383 69.974 15.5443 70.6641 16.1562C71.3542 16.7617 71.7122 17.5983 71.7383 18.666V23.5293C71.7383 24.4993 71.862 25.2708 72.1094 25.8438V26H70.2148ZM67.2168 24.623C67.7832 24.623 68.3203 24.4766 68.8281 24.1836C69.3359 23.8906 69.7038 23.5098 69.9316 23.041V20.873H68.5156C66.3021 20.873 65.1953 21.5208 65.1953 22.8164C65.1953 23.3828 65.3841 23.8255 65.7617 24.1445C66.1393 24.4635 66.6243 24.623 67.2168 24.623ZM77.0215 12.875V15.4336H78.9941V16.8301H77.0215V23.3828C77.0215 23.806 77.1094 24.125 77.2852 24.3398C77.4609 24.5482 77.7604 24.6523 78.1836 24.6523C78.3919 24.6523 78.6784 24.6133 79.043 24.5352V26C78.5677 26.1302 78.1055 26.1953 77.6562 26.1953C76.849 26.1953 76.2402 25.9512 75.8301 25.4629C75.4199 24.9746 75.2148 24.2812 75.2148 23.3828V16.8301H73.291V15.4336H75.2148V12.875H77.0215ZM80.4395 20.6191C80.4395 19.584 80.6413 18.653 81.0449 17.8262C81.4551 16.9993 82.0215 16.3613 82.7441 15.9121C83.4733 15.4629 84.3034 15.2383 85.2344 15.2383C86.6732 15.2383 87.8353 15.7363 88.7207 16.7324C89.6126 17.7285 90.0586 19.0534 90.0586 20.707V20.834C90.0586 21.8626 89.86 22.7871 89.4629 23.6074C89.0723 24.4212 88.5091 25.056 87.7734 25.5117C87.0443 25.9674 86.2044 26.1953 85.2539 26.1953C83.8216 26.1953 82.6595 25.6973 81.7676 24.7012C80.8822 23.7051 80.4395 22.3867 80.4395 20.7461V20.6191ZM82.2559 20.834C82.2559 22.0059 82.526 22.9466 83.0664 23.6562C83.6133 24.3659 84.3424 24.7207 85.2539 24.7207C86.1719 24.7207 86.901 24.3626 87.4414 23.6465C87.9818 22.9238 88.252 21.9147 88.252 20.6191C88.252 19.4603 87.9753 18.5228 87.4219 17.8066C86.875 17.084 86.1458 16.7227 85.2344 16.7227C84.3424 16.7227 83.623 17.0775 83.0762 17.7871C82.5293 18.4967 82.2559 19.5124 82.2559 20.834ZM97.4316 17.0547C97.1582 17.0091 96.862 16.9863 96.543 16.9863C95.3581 16.9863 94.554 17.4909 94.1309 18.5V26H92.3242V15.4336H94.082L94.1113 16.6543C94.7038 15.7103 95.5436 15.2383 96.6309 15.2383C96.9824 15.2383 97.2493 15.2839 97.4316 15.375V17.0547ZM97.9297 25.0527C97.9297 24.7402 98.0208 24.4798 98.2031 24.2715C98.3919 24.0632 98.6719 23.959 99.043 23.959C99.4141 23.959 99.694 24.0632 99.8828 24.2715C100.078 24.4798 100.176 24.7402 100.176 25.0527C100.176 25.3522 100.078 25.6029 99.8828 25.8047C99.694 26.0065 99.4141 26.1074 99.043 26.1074C98.6719 26.1074 98.3919 26.0065 98.2031 25.8047C98.0208 25.6029 97.9297 25.3522 97.9297 25.0527ZM109.688 26C109.583 25.7917 109.499 25.4206 109.434 24.8867C108.594 25.7591 107.591 26.1953 106.426 26.1953C105.384 26.1953 104.528 25.9023 103.857 25.3164C103.193 24.724 102.861 23.9753 102.861 23.0703C102.861 21.9701 103.278 21.1172 104.111 20.5117C104.951 19.8997 106.13 19.5938 107.646 19.5938H109.404V18.7637C109.404 18.1322 109.215 17.6309 108.838 17.2598C108.46 16.8822 107.904 16.6934 107.168 16.6934C106.523 16.6934 105.983 16.8561 105.547 17.1816C105.111 17.5072 104.893 17.901 104.893 18.3633H103.076C103.076 17.8359 103.262 17.3281 103.633 16.8398C104.01 16.3451 104.518 15.9544 105.156 15.668C105.801 15.3815 106.507 15.2383 107.275 15.2383C108.493 15.2383 109.447 15.5443 110.137 16.1562C110.827 16.7617 111.185 17.5983 111.211 18.666V23.5293C111.211 24.4993 111.335 25.2708 111.582 25.8438V26H109.688ZM106.689 24.623C107.256 24.623 107.793 24.4766 108.301 24.1836C108.809 23.8906 109.176 23.5098 109.404 23.041V20.873H107.988C105.775 20.873 104.668 21.5208 104.668 22.8164C104.668 23.3828 104.857 23.8255 105.234 24.1445C105.612 24.4635 106.097 24.623 106.689 24.623ZM116.006 26H114.199V15.4336H116.006V26ZM114.053 12.6309C114.053 12.3379 114.141 12.0905 114.316 11.8887C114.499 11.6868 114.766 11.5859 115.117 11.5859C115.469 11.5859 115.736 11.6868 115.918 11.8887C116.1 12.0905 116.191 12.3379 116.191 12.6309C116.191 12.9238 116.1 13.168 115.918 13.3633C115.736 13.5586 115.469 13.6562 115.117 13.6562C114.766 13.6562 114.499 13.5586 114.316 13.3633C114.141 13.168 114.053 12.9238 114.053 12.6309Z" fill="black"/>
</svg>
