<svg width="72" height="61" viewBox="0 0 72 61" fill="none" xmlns="http://www.w3.org/2000/svg">
<mask id="path-1-inside-1" fill="white">
<path fill-rule="evenodd" clip-rule="evenodd" d="M54.2136 14H59.5906L71.9752 60.2202V61H0L12.5936 14H16.7864C19.1607 5.90847 26.6404 0 35.5 0C44.3596 0 51.8393 5.90847 54.2136 14ZM22.6998 14C25.4918 8.8677 30.1833 5.5 35.5 5.5C40.8167 5.5 45.5082 8.8677 48.3002 14H22.6998Z"/>
</mask>
<path d="M59.5906 14L60.5565 13.7412L60.3579 13H59.5906V14ZM54.2136 14L53.254 14.2816L53.4649 15H54.2136V14ZM71.9752 60.2202H72.9752V60.0885L72.9411 59.9613L71.9752 60.2202ZM71.9752 61V62H72.9752V61H71.9752ZM0 61L-0.965926 60.7412L-1.30323 62H0V61ZM12.5936 14V13H11.8263L11.6277 13.7412L12.5936 14ZM16.7864 14V15H17.5351L17.746 14.2816L16.7864 14ZM22.6998 14L21.8214 13.5221L21.0174 15H22.6998V14ZM48.3002 14V15H49.9826L49.1786 13.5221L48.3002 14ZM59.5906 13H54.2136V15H59.5906V13ZM72.9411 59.9613L60.5565 13.7412L58.6246 14.2588L71.0093 60.479L72.9411 59.9613ZM72.9752 61V60.2202H70.9752V61H72.9752ZM0 62H71.9752V60H0V62ZM11.6277 13.7412L-0.965926 60.7412L0.965926 61.2588L13.5595 14.2588L11.6277 13.7412ZM16.7864 13H12.5936V15H16.7864V13ZM35.5 -1C26.1846 -1 18.3227 5.21262 15.8269 13.7184L17.746 14.2816C19.9987 6.60432 27.0962 1 35.5 1V-1ZM55.1731 13.7184C52.6773 5.21262 44.8154 -1 35.5 -1V1C43.9038 1 51.0013 6.60432 53.254 14.2816L55.1731 13.7184ZM23.5782 14.4779C26.2417 9.58178 30.6377 6.5 35.5 6.5V4.5C29.7288 4.5 24.7419 8.15363 21.8214 13.5221L23.5782 14.4779ZM35.5 6.5C40.3623 6.5 44.7583 9.58178 47.4218 14.4779L49.1786 13.5221C46.2581 8.15362 41.2712 4.5 35.5 4.5V6.5ZM48.3002 13H22.6998V15H48.3002V13Z" fill="black" mask="url(#path-1-inside-1)"/>
</svg>
